<?xml version="1.0" standalone="yes"?>
<svg xmlns="http://www.w3.org/2000/svg" width="160" height="84">
<path style="fill:#080808; stroke:none;" d="M0 0L0 3L42 3C57.531 2.999 71.1103 2.24147 83.2392 13.5941C86.9811 17.0966 88.3704 21.494 90.5131 26C96.4616 38.509 98.4241 50.2698 95.6281 64C93.9873 72.0575 88.8036 81.6568 80 83C86.9187 85.9032 97.5202 84 105 84L160 84L160 7C151.699 11.2492 145.906 19.2853 136.961 22.7315C128.711 25.9096 117.571 23.9854 109 23.1698C105.511 22.8377 101.288 23.7099 98.0934 21.9722C93.9838 19.7369 92.1344 14.5786 89.392 11.0394C87.2043 8.21611 84.6191 6.20251 83 3L132 3C141.134 3 151.077 1.8755 160 4L160 0L0 0z"/>
<path style="fill:#efefef; stroke:none;" d="M0 3C0.803706 8.2123 4.09621 11.3947 8.07948 14.6559C19.9686 24.3898 32.4309 23 47 23C54.7697 23 64.7122 21.9616 70.6065 28.2238C77.275 35.3085 84.2707 55.7005 72.9452 61.821C69.3391 63.7698 64.8861 62.7616 61 62.7099C55.0192 62.6303 48.9931 63 43 63C38.0607 63 32.9391 62.61 28.0193 63.0586C26.2036 63.2242 23.5695 63.6886 23.9213 66.1335C24.5028 70.1747 30.9603 74.0287 33.8302 76.4861C44.2168 85.3795 56.128 84 69 84C75.8452 84 82.6289 84.468 87.9961 79.517C93.9529 74.0222 95.3775 66.663 96.4236 59C99.1468 39.0516 91.2332 12.7395 70.9105 4.72376C63.0294 1.61528 53.219 2.90154 45 2.99614C30.0044 3.16874 14.9967 3 0 3M83 3C84.1675 6.83266 87.0056 8.87152 89.392 12.0147C91.826 15.2205 93.545 19.9012 97.1844 21.9722C100.298 23.744 104.571 22.8434 108 23.1698C116.804 24.0076 128.398 25.9473 136.961 23.0849C143.417 20.9266 149.193 16.0655 154.165 11.5995C155.768 10.1596 159.529 7.82084 159.079 5.22839C158.761 3.40098 156.428 3.19003 154.981 3.05864C150.388 2.64161 145.611 3 141 3L83 3z"/>
<path style="fill:#080808; stroke:none;" d="M0 7L0 84L48 84C40.656 80.3763 35.2552 76.939 29.0046 71.4205C27.3759 69.9825 22.6046 66.4297 25.466 64.0278C28.1385 61.7845 34.7476 63 38 63C45.8003 63 53.6298 62.7417 61.4244 62.8611C65.3175 62.9208 70.3265 63.8542 73.8665 61.821C77.7195 59.6081 78.8651 54.1013 78.9444 50C79.0053 46.855 78.0841 44.0161 77.331 41.0039C76.2829 36.8118 74.5582 32.6518 72.0093 29.1042C68.4547 24.1569 61.6926 23.0738 56 23.0039C45.8889 22.8797 35.0127 24.2303 25 22.7901C14.2181 21.2393 8.25657 12.9098 0 7z"/>
<path style="fill:#efefef; stroke:none;" d="M101 36L103 56C114.486 55.0859 127.683 48.7753 129 36L101 36z"/>
</svg>
