<?xml version="1.0" encoding="UTF-8"?>
<!DOCTYPE svg PUBLIC "-//W3C//DTD SVG 1.1//EN" "http://www.w3.org/Graphics/SVG/1.1/DTD/svg11.dtd">
<!-- Creator: CorelDRAW 2019 (64-Bit) -->
<svg xmlns="http://www.w3.org/2000/svg" xml:space="preserve" width="49.7807mm" height="11.6817mm" version="1.1" style="shape-rendering:geometricPrecision; text-rendering:geometricPrecision; image-rendering:optimizeQuality; fill-rule:evenodd; clip-rule:evenodd"
viewBox="0 0 677.44 158.97"
 xmlns:xlink="http://www.w3.org/1999/xlink"
 xmlns:xodm="http://www.corel.com/coreldraw/odm/2003">
 <defs>
  <style type="text/css">
   <![CDATA[
    .str0 {stroke:#FCCB58;stroke-width:2.72;stroke-miterlimit:22.9256}
    .fil0 {fill:#FCCB58}
    .fil1 {fill:#FCCB58;fill-rule:nonzero}
   ]]>
  </style>
 </defs>
 <g id="图层_x0020_1">
  <metadata id="CorelCorpID_0Corel-Layer"/>
  <g id="_1987288046784">
   <path class="fil0" d="M-0 0c7.36,17.54 30.18,23.1 48.19,24.77l33.58 0c17.85,0 38.37,14.57 45.28,36.09 3.37,10.49 4.72,37.33 -21.55,37.33l-59.29 0c6.19,14.32 25.2,24.53 41.75,24.37l31.24 -0.29c15.46,-1.58 25.45,-12.92 31.37,-23.97 16.99,-31.74 -11.54,-84.79 -50.93,-95.16 -6.44,-1.7 -14.52,-2.76 -32.09,-3.14l-67.53 0z"/>
   <path class="fil0" d="M143.19 25.56l52.63 -0.15c16.37,-0.12 38.97,-14.31 42.15,-25.41l-128.6 0c12.53,5.03 27.55,17.59 33.82,25.56z"/>
   <path class="fil0" d="M195.53 40.07l-44.71 0c4.54,7.68 7.35,17.08 9.32,24.22 18.52,0.25 28.27,-2.29 35.4,-24.22z"/>
  </g>
  <path class="fil1 str0" d="M291.2 121.21l12.65 -102.87 21.22 0c3.95,0 7.45,0.09 10.49,0.28 3.04,0.19 5.63,0.47 7.76,0.86 2.13,0.41 4.18,0.98 6.18,1.72 1.99,0.74 3.91,1.65 5.77,2.75 3.39,1.95 6.41,4.38 9.07,7.3 2.66,2.92 4.95,6.34 6.88,10.25 1.93,3.91 3.39,8.16 4.36,12.73 0.97,4.55 1.46,9.41 1.46,14.56 0,5.17 -0.65,10.2 -1.93,15.07 -1.28,4.88 -3.21,9.6 -5.77,14.14 -2.61,4.58 -5.64,8.48 -9.09,11.72 -3.45,3.24 -7.33,5.82 -11.63,7.75 -3.16,1.45 -7.33,2.54 -12.49,3.25 -5.14,0.71 -11.28,1.07 -18.39,1.07l-26.6 0 0.07 -0.58zm26.98 -87.75l-8.94 73.21 10.89 0c3.91,0 7.39,-0.17 10.42,-0.5 3.05,-0.34 5.66,-0.84 7.81,-1.49 2.13,-0.67 4.14,-1.57 6.01,-2.72 1.87,-1.15 3.62,-2.55 5.24,-4.21 3.74,-3.88 6.56,-8.41 8.43,-13.55 1.86,-5.13 2.78,-10.9 2.75,-17.28 -0,-3.83 -0.37,-7.37 -1.11,-10.64 -0.74,-3.26 -1.87,-6.25 -3.38,-8.98 -1.51,-2.7 -3.23,-4.96 -5.14,-6.79 -1.91,-1.82 -4.01,-3.2 -6.3,-4.15 -2.33,-0.97 -5.04,-1.7 -8.11,-2.18 -3.09,-0.48 -6.57,-0.73 -10.46,-0.73l-8.09 0zm69.63 87.77l12.65 -102.89 51.58 0 -1.79 15.12 -35.46 0 -3.1 25.41 35.46 0 -1.69 14.09 -35.46 0 -5.99 48.85 -16.28 0 0.07 -0.58zm66.25 0l12.65 -102.89 21.25 0c4.58,0 8.58,0.34 11.99,1.02 3.4,0.68 6.21,1.72 8.39,3.1 2.19,1.38 4.14,2.98 5.81,4.81 1.65,1.79 3.03,3.81 4.13,6.05 1.11,2.26 1.95,4.63 2.51,7.09 0.56,2.45 0.84,4.99 0.84,7.6 0,4.37 -0.67,8.39 -2.02,12.05 -1.35,3.67 -3.37,6.99 -6.08,9.95 -3.09,3.44 -6.93,6.02 -11.52,7.74 -4.57,1.71 -9.88,2.57 -15.93,2.57l-10.73 0 -5.1 41.48 -16.28 0 0.07 -0.58zm27.01 -87.77l-3.92 32.48 9.22 0c3.17,0 5.95,-0.4 8.34,-1.21 2.36,-0.81 4.35,-2.02 5.94,-3.65 1.59,-1.6 2.79,-3.49 3.58,-5.66 0.8,-2.19 1.21,-4.68 1.21,-7.47 0,-2.77 -0.53,-5.17 -1.56,-7.19 -1.03,-2.02 -2.58,-3.69 -4.64,-5.04 -1.22,-0.74 -2.83,-1.3 -4.81,-1.68 -2.02,-0.38 -4.43,-0.57 -7.21,-0.57l-6.15 0zm76.39 89.4c-1.66,0.31 -3.42,0.46 -5.28,0.46 -3.85,0 -7.45,-0.69 -10.79,-2.07 -3.34,-1.38 -6.44,-3.44 -9.3,-6.19 -2.87,-2.76 -5.02,-6.09 -6.44,-9.99 -1.42,-3.89 -2.12,-8.34 -2.12,-13.35 0,-5.01 0.76,-9.61 2.28,-13.79 1.52,-4.18 3.8,-7.93 6.84,-11.24 3.02,-3.31 6.53,-5.81 10.48,-7.47 3.95,-1.66 8.35,-2.5 13.17,-2.5 2.24,0 4.33,0.19 6.26,0.56 1.99,0.37 3.82,0.94 5.49,1.67l0.02 0.01c2.96,1.42 5.92,3.66 8.86,6.78l1.04 -7.5 15.58 0c-2.63,21.18 -5.25,42.39 -7.78,63.58l-15.66 0 0.73 -6.02c-1.4,1.18 -2.75,2.2 -4.04,3.06 -1.61,1.08 -3.15,1.93 -4.61,2.56 -1.5,0.65 -3.07,1.13 -4.73,1.45zm16.05 -41.86c-0.78,-2.25 -1.95,-4.24 -3.51,-5.95 -1.56,-1.67 -3.36,-2.92 -5.38,-3.75 -2.03,-0.83 -4.31,-1.25 -6.83,-1.25 -2.51,0 -4.85,0.53 -7.01,1.57 -2.18,1.05 -4.19,2.62 -6.01,4.71 -1.84,2.09 -3.22,4.38 -4.13,6.87 -0.92,2.49 -1.37,5.19 -1.37,8.1 0,2.9 0.39,5.49 1.16,7.77 0.77,2.27 1.92,4.24 3.44,5.91 1.49,1.72 3.23,2.98 5.21,3.82 1.99,0.84 4.25,1.26 6.77,1.26 2.51,0 4.86,-0.53 7.04,-1.59 2.19,-1.07 4.24,-2.68 6.14,-4.84 1.88,-2.17 3.3,-4.5 4.24,-6.99 0.94,-2.49 1.42,-5.15 1.42,-7.98 0,-2.84 -0.39,-5.39 -1.17,-7.65zm61.47 16.51l22.2 -39.28 17.91 0c-19.06,33.12 -38.16,66.22 -57.15,99.37l-17.91 0 25.51 -44.16 -22.6 -55.22 16.79 0 15.25 39.28z"/>
 </g>
</svg>
